<?xml version="1.0" encoding="iso-8859-1"?>
<!-- Uploaded to: SVG Repo, www.svgrepo.com, Generator: SVG Repo Mixer Tools -->
<svg fill="#000000" height="800px" width="800px" version="1.1" id="Layer_1" xmlns="http://www.w3.org/2000/svg" xmlns:xlink="http://www.w3.org/1999/xlink" 
	 viewBox="0 0 512.001 512.001" xml:space="preserve">
<g>
	<g>
		<path d="M497.624,14.376c-19.168-19.168-50.247-19.168-69.414,0l-27.065,27.065c-5.939,5.939-5.939,15.569,0,21.509l1.176,1.176
			l-79.195,79.195c-45.748-30.539-100.118-32.422-131.329-1.21c-8.248,8.248-14.184,18.115-17.89,29.012
			c-7.107,20.896-26.2,35.402-48.236,36.653c-32.612,1.851-63.585,14.452-87.279,38.145
			c-55.818,55.818-50.099,152.039,12.776,214.913c62.874,62.874,159.094,68.594,214.913,12.776
			c23.693-23.693,36.296-54.666,38.145-87.279c1.25-22.035,15.758-41.13,36.653-48.236c10.897-3.706,20.763-9.642,29.012-17.89
			c31.21-31.211,29.329-85.58-1.21-131.329l79.195-79.195l1.176,1.176c5.939,5.939,15.569,5.939,21.509,0l27.065-27.065
			C516.793,64.623,516.793,33.544,497.624,14.376z M177.537,440.034c-3.6,3.599-8.318,5.399-13.037,5.399s-9.437-1.8-13.037-5.399
			l-79.496-79.496c-7.2-7.201-7.2-18.874,0-26.075c7.201-7.2,18.874-7.2,26.075,0l79.496,79.496
			C184.736,421.16,184.736,432.833,177.537,440.034z M291.349,296.737c-21.011,21.011-55.075,21.011-76.086,0
			c-21.011-21.011-21.011-55.075,0-76.086s55.075-21.011,76.086,0C312.36,241.662,312.358,275.727,291.349,296.737z"/>
	</g>
</g>
</svg>